<?xml version="1.0" encoding="UTF-8" standalone="no"?><!DOCTYPE svg PUBLIC "-//W3C//DTD SVG 1.1//EN" "http://www.w3.org/Graphics/SVG/1.1/DTD/svg11.dtd"><svg width="100%" height="100%" viewBox="0 0 260 260" version="1.1" xmlns="http://www.w3.org/2000/svg" xmlns:xlink="http://www.w3.org/1999/xlink" xml:space="preserve" xmlns:serif="http://www.serif.com/" style="fill-rule:evenodd;clip-rule:evenodd;stroke-linejoin:round;stroke-miterlimit:2;"><g id="favicon_SERENA.png"><path d="M156.419,84.879c19.891,0.36 36.692,7.093 42.245,6.618c4.987,-0.427 3.556,-6.014 5.076,-5.365c0.191,0.082 0.215,0.183 0.208,29.35c-0.003,11.485 0.233,11.507 -0.044,12.465c-0.129,0.446 -1.946,0.639 -2.013,-0.239c-0.034,-0.45 0.913,-16.737 -15.893,-29.345c-24.436,-18.332 -55.89,-13.667 -51.973,9.703c1.718,10.251 22.327,20.832 30.993,25.742c33.655,19.069 50.502,32.28 47.049,61.829c-1.217,10.412 -7.8,16.778 -8.95,17.89c-4.156,4.019 -10.2,7.088 -14.567,8.431c-4.593,1.413 -6.178,2.311 -15.818,3.369c-19.259,2.112 -27.778,-0.56 -40.546,-1.627c-0.44,-0.037 -37.603,-5.067 -40.31,-5.571c-48.763,-9.081 -59.266,-23.438 -60.808,-25.054c-11.449,-11.994 -14.25,-26.998 -14.979,-29.129c-1.345,-3.932 -4.528,-25.31 -0.536,-40.302c0.992,-3.726 2.774,-13.873 12.225,-29.046c36.921,-59.267 112.128,-38.163 123.112,-36.142c5.242,0.964 29.853,5.691 53.791,2.896c10.073,-1.176 13.751,-2.964 14.849,-3.498c16.02,-7.788 2.976,-17.618 10.842,-22.97c1.241,-0.845 11.907,-5.707 14.996,5.258c1.551,5.505 -4.436,17.951 -33.519,22.23c-5.303,0.78 -11.912,2.685 -32.627,1.804c-19.182,-0.815 -43.007,-6.725 -49.92,-7.466c-7.691,-0.824 -60.978,-10.896 -93.02,29.807c-10.894,13.838 -28.421,47.691 -15.262,84.426c3.02,8.43 11.185,23.046 24.303,29.949c9.243,4.864 35.796,13.363 41.987,13.573c7.808,0.265 14.194,-3.312 14.379,-10.184c0.032,-1.199 -0.035,-24.261 0.078,-24.45c0.245,-0.407 1.475,-0.479 1.546,0.229c0.254,2.525 -0.076,9.153 5.301,18.01c7.91,13.029 28.027,25.692 50.45,25.681c13.317,-0.007 23.574,-1.408 23.946,-14.91c0.775,-28.144 -60.386,-46.631 -75.026,-66.748c-0.252,-0.346 -8.071,-9.191 -6.774,-24.452c2.184,-25.693 33.72,-33.375 55.211,-32.761Z" style="fill:#bc8b2c;fill-opacity:0.98;"/></g></svg>